{"title":"Rugby.Union-Scrum.V-2013.02.17.pdtv.x264","uid":8155245,"size":390514118,"categoryP":"video","categoryS":"tv_shows","magnet":"?xt=urn:btih:92042554c8c7c0f54bfa119907780cc88614c2f4&amp;dn=Rugby.Union-Scrum.V-2013.02.17.pdtv.x264&amp;tr=udp%3A%2F%2Ftracker.openbittorrent.com%3A80&amp;tr=udp%3A%2F%2Fopen.demonii.com%3A1337&amp;tr=udp%3A%2F%2Ftracker.coppersurfer.tk%3A6969&amp;tr=udp%3A%2F%2Fexodus.desync.com%3A6969","seeders":1,"leechers":0,"uploader":"rugbybill","files":3,"time":1361149609,"description":"SPORT: Scrum V\nOn: BBC 2 Wales \nDate: Sunday 17th February 2013 \nTime: 17:15 to 18:00 \n\nRoss Harries presents Scrum V with highlights of all the weekend's Pro 12 action and a look ahead to Wales's next Six Nations game against Italy.\n\n\nGeneral\nComplete name: 2013.02.17.Scrum.V.pdtv.x264.mkv\nFormat : Matroska\nFormat version : Version 4 / Version 2\nFile size: 372 MiB\nDuration : 44mn 0s\nOverall bit rate : 1 181 Kbps\nEncoded date : UTC 2013-02-17 19:10:04\nWriting application: mkvmerge v6.0.0 ('Coming Up For Air') built on Jan 20 2013 09:52:00\nWriting library: libebml v1.3.0 + libmatroska v1.4.0\n\nVideo\nID : 1\nFormat : AVC\nFormat/Info: Advanced Video Codec\nFormat profile : &lt;a class=&quot;__cf_email__&quot; href=&quot;/cdn-cgi/l/email-protection&quot; data-cfemail=&quot;0840616f6048443b2639&quot;&gt;[email&amp;#160;protected]&lt;/a&gt;&lt;script cf-hash='f9e31' type=&quot;text/javascript&quot;&gt;\n/* &lt;![CDATA[ */!function(){try{var t=&quot;currentScript&quot;in document?document.currentScript:function(){for(var t=document.getElementsByTagName(&quot;script&quot;),e=t.length;e--;)if(t[e].getAttribute(&quot;cf-hash&quot;))return t[e]}();if(t&amp;&amp;t.previousSibling){var e,r,n,i,c=t.previousSibling,a=c.getAttribute(&quot;data-cfemail&quot;);if(a){for(e=&quot;&quot;,r=parseInt(a.substr(0,2),16),n=2;a.length-n;n+=2)i=parseInt(a.substr(n,2),16)^r,e+=String.fromCharCode(i);e=document.createTextNode(e),c.parentNode.replaceChild(e,c)}}}catch(u){}}();/* ]]&gt; */&lt;/script&gt;\nFormat settings, CABAC : Yes\nFormat settings, ReFrames: 5 frames\nCodec ID : V_MPEG4/ISO/AVC\nDuration : 44mn 0s\nBit rate : 1 030 Kbps\nWidth: 720 pixels\nHeight : 416 pixels\nDisplay aspect ratio : 1.731\nFrame rate mode: Constant\nFrame rate : 25.000 fps\nColor space: YUV\nChroma subsampling : 4:2:0\nBit depth: 8 bits\nScan type: Progressive\nBits/(Pixel*Frame) : 0.138\nStream size: 324 MiB (87%)\nWriting library: x264 core 129 r2245 bc13772\n\nAudio\nID : 2\nFormat : AC-3\nFormat/Info: Audio Coding 3\nMode extension : CM (complete main)\nFormat settings, Endianness: Big\nCodec ID : A_AC3\nDuration : 44mn 0s\nBit rate mode: Constant\nBit rate : 128 Kbps\nChannel(s) : 2 channels\nChannel positions: Front: L R\nSampling rate: 48.0 KHz\nBit depth: 16 bits\nCompression mode : Lossy\nStream size: 40.3 MiB (11%)\n\n","torrent":{"xt":"urn:btih:92042554c8c7c0f54bfa119907780cc88614c2f4","amp;dn":"Rugby.Union-Scrum.V-2013.02.17.pdtv.x264","amp;tr":["udp%3A%2F%2Ftracker.openbittorrent.com%3A80","udp%3A%2F%2Fopen.demonii.com%3A1337","udp%3A%2F%2Ftracker.coppersurfer.tk%3A6969","udp%3A%2F%2Fexodus.desync.com%3A6969"],"infoHash":"92042554c8c7c0f54bfa119907780cc88614c2f4","infoHashBuffer":{"type":"Buffer","data":[146,4,37,84,200,199,192,245,75,250,17,153,7,120,12,200,134,20,194,244]},"announce":[],"urlList":[]}}